<svg xmlns="http://www.w3.org/2000/svg" version="1.1" xmlns:xlink="http://www.w3.org/1999/xlink"
    xmlns:svgjs="http://svgjs.com/svgjs" viewBox="0 0 640 400" data-background-color="#fdf8f1"
    preserveAspectRatio="xMidYMid meet" height="400" width="640">
    <rect width="640" height="400" x="0" y="0" opacity="1" fill="#fdf8f1" data-fill-palette-color="background"
        id="background"></rect>
    <g id="tight-bounds" transform="matrix(1,0,0,1,122.24000000000001,76.4)"><svg viewBox="0 0 395.52 247.2"
            height="247.2" width="395.52">
            <g><svg xmlns="http://www.w3.org/2000/svg" version="1.1" xmlns:xlink="http://www.w3.org/1999/xlink"
                    xmlns:svgjs="http://svgjs.com/svgjs"></svg></g>
            <g><svg viewBox="0 0 395.52 247.2" height="247.2" width="395.52">
                    <g transform="matrix(2.965621907710208, 0, 0, 2.965621907710208, 87.65387262148923, 1)"><svg
                            xmlns="http://www.w3.org/2000/svg" xmlns:xlink="http://www.w3.org/1999/xlink" version="1.1"
                            x="0" y="0"
                            viewBox="7.871999999999998 3.5067500000000003 74.25500000000001 82.68080275591228"
                            enable-background="new 0 0 90 90" xml:space="preserve" height="82.68080275591228"
                            width="74.25500000000001" class="icon-none" fill="#fa4238" data-fill-palette-color="accent"
                            id="none">
                            <g>
                                <g>
                                    <path fill="#fa4238"
                                        d="M42.033 42.164c1.632 0.946 4.301 0.946 5.933-0.001l29.815-17.302c1.632-0.947 1.63-2.493-0.004-3.437L47.97 4.214c-1.633-0.943-4.306-0.943-5.94 0L12.214 21.429c-1.634 0.943-1.635 2.489-0.003 3.436L42.033 42.164z"
                                        data-fill-palette-color="accent"></path>
                                </g>
                                <g>
                                    <path fill="#fa4238"
                                        d="M43.714 49.542c0-1.887-1.335-4.204-2.967-5.151l-29.908-17.35c-1.632-0.947-2.967-0.178-2.967 1.708v34.628c0 1.887 1.336 4.201 2.97 5.145l29.901 17.263c1.634 0.943 2.97 0.172 2.97-1.715V49.542z"
                                        data-fill-palette-color="accent"></path>
                                </g>
                                <g>
                                    <path fill="#fa4238"
                                        d="M49.253 44.391c-1.632 0.947-2.967 3.265-2.967 5.151V84.07c0 1.887 1.337 2.658 2.971 1.715l29.899-17.263c1.634-0.943 2.971-3.258 2.971-5.145V28.742c0-1.886-1.335-2.655-2.967-1.708L49.253 44.391z"
                                        data-fill-palette-color="accent"></path>
                                </g>
                            </g>
                        </svg></g>
                    <rect width="348.05760000000004" height="40.519709591303155" fill="#fdf8f1" y="103.34014520434842"
                        x="23.731199999999973"></rect>
                    <g transform="matrix(1,0,0,1,39.55199999999999,105.18195018577129)"><svg
                            viewBox="0 0 316.416 36.83609962845741" height="36.83609962845741" width="316.416">
                            <g><svg viewBox="0 0 316.416 36.83609962845741" height="36.83609962845741" width="316.416">
                                    <g><svg viewBox="0 0 316.416 36.83609962845741" height="36.83609962845741"
                                            width="316.416">
                                            <g><svg viewBox="0 0 316.416 36.83609962845741" height="36.83609962845741"
                                                    width="316.416">
                                                    <g><svg viewBox="0 0 316.416 36.83609962845741"
                                                            height="36.83609962845741" width="316.416">
                                                            <g transform="matrix(1,0,0,1,0,0)"><svg width="316.416"
                                                                    viewBox="0.32 -31.88 354.79 41.3"
                                                                    height="36.83609962845741"
                                                                    data-palette-color="#fa4238">
                                                                    <path
                                                                        d="M11.69 9.08L11.99 7.13 8.18 6.27 8.18-16.26Q9.16-17.29 10.46-18.02 11.77-18.75 13.18-18.75L13.18-18.75Q15.5-18.75 16.67-16.52 17.85-14.28 17.85-9.91L17.85-9.91Q17.85-6.37 16.53-4.27 15.21-2.17 12.74-2.17L12.74-2.17Q11.3-2.17 10.57-2.28 9.84-2.39 9.01-2.71L9.01-2.71 9.16 0.24Q10.38 0.46 11.45 0.46L11.45 0.46Q14.55 0.46 17.03-1.05 19.51-2.56 20.91-5.27 22.31-7.98 22.31-11.4L22.31-11.4Q22.31-14.99 21.36-17.35 20.41-19.7 18.75-20.83 17.09-21.95 14.92-21.95L14.92-21.95Q12.77-21.95 11.06-20.75 9.35-19.56 8.18-17.92L8.18-17.92 8.01-17.92 8.35-21.07 7.84-21.53 0.73-20.63 0.44-18.75 4.2-17.63 4.2 6.25 0.46 7.18 0.32 9.08 11.69 9.08ZM38.08 0L38.33-2.12 32.64-2.95 32.64-12.3Q32.88-14.04 33.6-15.23 34.32-16.43 35.2-17.03 36.08-17.63 36.81-17.63L36.81-17.63Q37.52-17.63 38.3-17.37 39.08-17.11 39.79-16.67L39.79-16.67Q41.18-17.85 41.18-19.38L41.18-19.38Q41.18-20.48 40.43-21.3 39.67-22.12 38.47-22.12L38.47-22.12Q37.38-22.12 36.25-21.37 35.13-20.63 34.13-19.14 33.13-17.65 32.49-15.53L32.49-15.53 32.03-15.53 32.52-21.14 31.96-21.73 24.95-20.83 24.61-18.97 28.59-17.77 28.59-2.78 24.85-1.81 24.61 0 38.08 0ZM52.88 0.66Q55.71 0.66 58.05-0.78 60.4-2.22 61.75-4.83 63.11-7.45 63.11-10.77L63.11-10.77Q63.11-14.11 61.95-16.66 60.79-19.21 58.6-20.63 56.42-22.05 53.46-22.05L53.46-22.05Q50.68-22.05 48.25-20.65 45.82-19.26 44.33-16.61 42.84-13.96 42.84-10.4L42.84-10.4Q42.84-7.23 44.03-4.72 45.21-2.22 47.47-0.78 49.73 0.66 52.88 0.66L52.88 0.66ZM52.44-19.48Q54.61-19.48 56.04-17.88 57.47-16.28 58.11-13.84 58.76-11.4 58.76-8.76L58.76-8.76Q58.76-6.96 58.2-5.35 57.64-3.74 56.49-2.72 55.34-1.71 53.71-1.71L53.71-1.71Q51.44-1.71 49.97-3.2 48.51-4.69 47.85-7.06 47.19-9.42 47.19-12.13L47.19-12.13Q47.19-14.14 47.75-15.81 48.31-17.48 49.49-18.48 50.68-19.48 52.44-19.48L52.44-19.48ZM73.8 9.42Q76.53 9.42 79.14 8.25 81.76 7.08 83.38 5.19 85 3.3 85 1.22L85 1.22Q85-1.34 83.11-2.51 81.22-3.69 78.24-3.69L78.24-3.69 74.92-3.69Q72.28-3.69 71.37-4.14 70.45-4.59 70.45-5.44L70.45-5.44Q70.45-6.32 71.67-7.59L71.67-7.59Q71.97-7.52 72.6-7.43 73.23-7.35 73.87-7.35L73.87-7.35Q75.77-7.35 77.69-8.26 79.61-9.18 80.86-10.84 82.12-12.5 82.12-14.62L82.12-14.62Q82.12-15.45 81.85-16.41 81.58-17.36 81.29-18.02L81.29-18.02 81.29-18.43 84.29-17.46 84.68-17.46 85.64-20.17 85.15-20.73Q84.39-20.65 82.63-20.52 80.88-20.39 79.9-20.34L79.9-20.34Q77.78-21.88 74.77-21.88L74.77-21.88Q72.75-21.88 70.85-20.84 68.96-19.8 67.79-18.07 66.62-16.33 66.62-14.38L66.62-14.38Q66.62-12.87 67.31-11.5 68.01-10.13 68.96-9.24 69.91-8.35 70.6-8.18L70.6-8.18 70.6-8.01Q69.69-7.64 68.73-6.93 67.77-6.23 67.14-5.43 66.52-4.64 66.52-4L66.52-4Q66.52-2.95 67.13-2.08 67.74-1.2 68.86-0.66L68.86-0.66 68.86-0.44Q64.96 1.78 64.96 3.96L64.96 3.96Q64.96 6.86 67.46 8.14 69.96 9.42 73.8 9.42L73.8 9.42ZM74.19-20.09Q75.41-20.09 76.3-19.19 77.19-18.29 77.67-16.92 78.14-15.55 78.14-14.16L78.14-14.16Q78.14-11.67 77.2-10.47 76.26-9.28 74.55-9.28L74.55-9.28Q73.63-9.28 72.69-9.99 71.75-10.69 71.14-11.96 70.52-13.23 70.52-14.84L70.52-14.84Q70.52-17.31 71.44-18.7 72.36-20.09 74.19-20.09L74.19-20.09ZM70.52-0.07L74.77-0.07Q77.14-0.07 78.41 0.11 79.68 0.29 80.28 0.83 80.88 1.37 80.88 2.44L80.88 2.44Q80.88 4.71 79.3 5.76 77.73 6.81 75.11 6.81L75.11 6.81Q69.26 6.81 69.26 2.64L69.26 2.64Q69.26 1.64 69.54 1.04 69.82 0.44 70.17 0.15 70.52-0.15 70.52-0.07L70.52-0.07ZM100.55 0L100.8-2.12 95.11-2.95 95.11-12.3Q95.35-14.04 96.07-15.23 96.79-16.43 97.67-17.03 98.55-17.63 99.28-17.63L99.28-17.63Q99.99-17.63 100.77-17.37 101.55-17.11 102.26-16.67L102.26-16.67Q103.65-17.85 103.65-19.38L103.65-19.38Q103.65-20.48 102.9-21.3 102.14-22.12 100.94-22.12L100.94-22.12Q99.84-22.12 98.72-21.37 97.6-20.63 96.6-19.14 95.6-17.65 94.96-15.53L94.96-15.53 94.5-15.53 94.99-21.14 94.42-21.73 87.42-20.83 87.07-18.97 91.05-17.77 91.05-2.78 87.32-1.81 87.07 0 100.55 0ZM109.97 0.59Q112.61 0.59 114.28-0.62 115.95-1.83 116.66-3.2L116.66-3.2 116.93-3.2 116.93-2.83Q116.93-2.03 117.31-1.28 117.69-0.54 118.54-0.05 119.4 0.44 120.72 0.44L120.72 0.44Q121.74 0.44 122.91 0.17L122.91 0.17Q123.67 0.02 124.04-0.02L124.04-0.02 124.35-2.12 123.13-2.34Q121.98-2.54 121.41-2.87 120.84-3.2 120.62-3.82 120.4-4.44 120.4-5.62L120.4-5.62 120.4-14.48Q120.4-18.38 118.99-20.18 117.59-21.97 114.37-21.97L114.37-21.97Q112.66-21.97 110.68-21.26 108.7-20.56 107.36-19.4 106.02-18.24 106.02-16.97L106.02-16.97Q106.02-15.38 106.99-14.92 107.97-14.45 109.41-14.45L109.41-14.45Q109.63-16.92 109.79-17.85 109.95-18.77 110.46-19.24 110.97-19.7 112.12-19.7L112.12-19.7Q114.44-19.7 115.44-17.86 116.44-16.02 116.44-13.18L116.44-13.18 116.44-11.84Q112.63-11.57 110.11-10.44 107.58-9.3 106.38-7.64 105.19-5.98 105.19-4.1L105.19-4.1Q105.19-2.66 105.83-1.6 106.48-0.54 107.58 0.02 108.68 0.59 109.97 0.59L109.97 0.59ZM116.44-10.45L116.44-4.59Q115.71-3.78 114.54-3.1 113.37-2.42 112.19-2.42L112.19-2.42Q111.34-2.42 110.72-2.86 110.09-3.3 109.78-3.96 109.46-4.61 109.46-5.25L109.46-5.25Q109.46-7.13 111.05-8.41 112.63-9.69 116.44-10.45L116.44-10.45ZM136.61 0L136.87-1.93 133.38-2.78 133.38-16.43Q134.29-17.46 135.56-18.01 136.83-18.55 138.19-18.55L138.19-18.55Q139.36-18.55 140.32-18.02 141.27-17.48 141.82-16.5 142.37-15.53 142.37-14.28L142.37-14.28 142.37-2.78 139.17-1.81 138.9 0 149.72 0 149.96-1.93 146.35-2.78 146.35-16.11Q147.42-17.26 148.48-17.91 149.55-18.55 151.01-18.55L151.01-18.55Q152.91-18.55 154.01-17.33 155.11-16.11 155.11-14.28L155.11-14.28 155.11-2.76 152.06-1.78 151.89 0 162.27 0 162.58-1.93 159.21-2.81 159.21-14.87Q159.21-21.68 153.45-21.68L153.45-21.68Q151.28-21.68 149.41-20.59 147.54-19.51 146.25-17.85L146.25-17.85 145.96-17.85Q145.42-19.92 143.92-20.9 142.42-21.88 140.56-21.88L140.56-21.88Q138.41-21.88 136.47-20.78 134.53-19.68 133.24-18.07L133.24-18.07 133.02-18.07 133.46-21.14 133.02-21.66 125.6-20.63 125.35-18.8 129.26-17.55 129.26-2.78 125.6-1.81 125.35 0 136.61 0ZM175.28 0L175.54-1.93 172.05-2.78 172.05-16.43Q172.96-17.46 174.23-18.01 175.5-18.55 176.86-18.55L176.86-18.55Q178.03-18.55 178.99-18.02 179.94-17.48 180.49-16.5 181.04-15.53 181.04-14.28L181.04-14.28 181.04-2.78 177.84-1.81 177.57 0 188.39 0 188.63-1.93 185.02-2.78 185.02-16.11Q186.09-17.26 187.15-17.91 188.21-18.55 189.68-18.55L189.68-18.55Q191.58-18.55 192.68-17.33 193.78-16.11 193.78-14.28L193.78-14.28 193.78-2.76 190.73-1.78 190.56 0 200.93 0 201.25-1.93 197.88-2.81 197.88-14.87Q197.88-21.68 192.12-21.68L192.12-21.68Q189.95-21.68 188.08-20.59 186.21-19.51 184.92-17.85L184.92-17.85 184.63-17.85Q184.09-19.92 182.59-20.9 181.09-21.88 179.23-21.88L179.23-21.88Q177.08-21.88 175.14-20.78 173.2-19.68 171.91-18.07L171.91-18.07 171.69-18.07 172.13-21.14 171.69-21.66 164.26-20.63 164.02-18.8 167.93-17.55 167.93-2.78 164.26-1.81 164.02 0 175.28 0ZM208.35-26.12Q209.14-26.12 209.83-26.53 210.53-26.93 210.93-27.61 211.33-28.3 211.33-29.1L211.33-29.1Q211.33-30.27 210.45-31.08 209.57-31.88 208.35-31.88L208.35-31.88Q207.18-31.88 206.32-31.09 205.45-30.3 205.45-29.15L205.45-29.15Q205.45-28.34 205.84-27.65 206.23-26.95 206.9-26.54 207.57-26.12 208.35-26.12L208.35-26.12ZM202.54 0L214.26 0 214.53-1.95 210.62-2.83 210.62-21 210.01-21.61 203.15-21.04 202.84-19.19 206.52-17.85 206.52-2.83 202.84-1.93 202.54 0ZM227.03 0L227.37-1.93 223.73-2.78 223.73-16.48Q224.64-17.48 225.91-18.03 227.17-18.58 228.54-18.58L228.54-18.58Q230.47-18.58 231.63-17.47 232.79-16.36 232.79-14.09L232.79-14.09 232.79-2.78 229.42-1.78 229.18 0 240.14 0 240.38-1.93 236.87-2.78 236.87-15.04Q236.87-18.33 235.35-20.14 233.84-21.95 230.98-21.95L230.98-21.95Q228.83-21.95 226.93-20.85 225.03-19.75 223.63-18.09L223.63-18.09 223.39-18.09 223.81-21.22 223.39-21.68 216.12-20.73 215.87-18.87 219.63-17.6 219.63-2.78 215.94-1.78 215.7 0 227.03 0ZM250.1 9.42Q252.83 9.42 255.44 8.25 258.06 7.08 259.68 5.19 261.3 3.3 261.3 1.22L261.3 1.22Q261.3-1.34 259.41-2.51 257.52-3.69 254.54-3.69L254.54-3.69 251.22-3.69Q248.58-3.69 247.67-4.14 246.75-4.59 246.75-5.44L246.75-5.44Q246.75-6.32 247.97-7.59L247.97-7.59Q248.27-7.52 248.9-7.43 249.54-7.35 250.17-7.35L250.17-7.35Q252.07-7.35 253.99-8.26 255.91-9.18 257.16-10.84 258.42-12.5 258.42-14.62L258.42-14.62Q258.42-15.45 258.15-16.41 257.89-17.36 257.59-18.02L257.59-18.02 257.59-18.43 260.6-17.46 260.99-17.46 261.94-20.17 261.45-20.73Q260.69-20.65 258.93-20.52 257.18-20.39 256.2-20.34L256.2-20.34Q254.08-21.88 251.07-21.88L251.07-21.88Q249.05-21.88 247.16-20.84 245.26-19.8 244.09-18.07 242.92-16.33 242.92-14.38L242.92-14.38Q242.92-12.87 243.62-11.5 244.31-10.13 245.26-9.24 246.22-8.35 246.9-8.18L246.9-8.18 246.9-8.01Q246-7.64 245.03-6.93 244.07-6.23 243.44-5.43 242.82-4.64 242.82-4L242.82-4Q242.82-2.95 243.43-2.08 244.04-1.2 245.17-0.66L245.17-0.66 245.17-0.44Q241.26 1.78 241.26 3.96L241.26 3.96Q241.26 6.86 243.76 8.14 246.26 9.42 250.1 9.42L250.1 9.42ZM250.49-20.09Q251.71-20.09 252.6-19.19 253.49-18.29 253.97-16.92 254.44-15.55 254.44-14.16L254.44-14.16Q254.44-11.67 253.5-10.47 252.56-9.28 250.85-9.28L250.85-9.28Q249.93-9.28 248.99-9.99 248.05-10.69 247.44-11.96 246.83-13.23 246.83-14.84L246.83-14.84Q246.83-17.31 247.74-18.7 248.66-20.09 250.49-20.09L250.49-20.09ZM246.83-0.07L251.07-0.07Q253.44-0.07 254.71 0.11 255.98 0.29 256.58 0.83 257.18 1.37 257.18 2.44L257.18 2.44Q257.18 4.71 255.6 5.76 254.03 6.81 251.42 6.81L251.42 6.81Q245.56 6.81 245.56 2.64L245.56 2.64Q245.56 1.64 245.84 1.04 246.12 0.44 246.47 0.15 246.83-0.15 246.83-0.07L246.83-0.07ZM280.71 0.73Q282.98 0.73 285.11-0.16 287.25-1.05 288.28-2.27L288.28-2.27 287.67-3.69Q286.57-2.98 285.47-2.59 284.37-2.2 282.73-2.2L282.73-2.2Q280.37-2.2 278.73-3.81 277.09-5.42 276.29-7.79 275.48-10.16 275.48-12.38L275.48-12.38Q275.48-14.58 276.08-16.22 276.68-17.87 277.77-18.77 278.85-19.68 280.29-19.68L280.29-19.68Q281.71-19.68 282.6-18.54 283.49-17.41 284.22-15.67L284.22-15.67Q285.71-15.77 286.52-16.46 287.32-17.14 287.32-18.24L287.32-18.24Q287.32-19.24 286.68-20.09 286.03-20.95 284.71-21.46 283.39-21.97 281.44-21.97L281.44-21.97Q278.75-21.97 276.37-20.5 273.99-19.02 272.53-16.32 271.06-13.62 271.06-10.13L271.06-10.13Q271.06-7.2 272.26-4.71 273.46-2.22 275.65-0.74 277.85 0.73 280.71 0.73L280.71 0.73ZM292.67-17.77L292.67-6.52Q292.67-2.78 294.12-1.11 295.57 0.56 298.11 0.56L298.11 0.56Q302.51 0.56 305.09-3.2L305.09-3.2 305.41-3.2 305.41-2.98Q305.41-1.39 306.33-0.42 307.24 0.56 309 0.56L309 0.56Q310.07 0.56 310.81 0.46 311.54 0.37 312.69 0.1L312.69 0.1 312.91-1.93 311.78-2.17Q310.78-2.39 310.27-2.64 309.76-2.88 309.45-3.48 309.15-4.08 309.15-5.25L309.15-5.25 309.15-20.97 308.63-21.56 301.46-20.9 301.21-18.65 305.09-17.63 305.09-4.66Q304.22-3.76 303.15-3.27 302.09-2.78 300.55-2.78L300.55-2.78Q296.79-2.78 296.79-7.74L296.79-7.74 296.79-20.97 296.18-21.56 289.64-21.04 289.3-19.12 292.67-17.77ZM316.62-27.78L316.62-1.2Q318.01-0.32 319.79 0.12 321.57 0.56 323.33 0.56L323.33 0.56Q326.55 0.56 329.31-0.88 332.07-2.32 333.72-5.05 335.37-7.79 335.37-11.52L335.37-11.52Q335.37-14.58 334.38-16.94 333.39-19.31 331.61-20.63 329.82-21.95 327.48-21.95L327.48-21.95Q325.53-21.95 323.82-20.95 322.11-19.95 320.52-18.16L320.52-18.16 320.25-18.16 320.59-20.73 320.59-30.88 320.01-31.45 313.25-30.93 312.93-29.08 316.62-27.78ZM320.59-16.41Q322.82-18.75 325.82-18.75L325.82-18.75Q327.77-18.75 328.92-17.4 330.07-16.04 330.53-14.05 331-12.06 331-9.96L331-9.96Q331-7.35 330.29-5.59 329.58-3.83 328.38-2.98 327.19-2.12 325.75-2.12L325.75-2.12Q324.16-2.12 322.74-2.59 321.33-3.05 320.59-3.78L320.59-3.78 320.59-16.41ZM347.08 0.73Q349.47 0.73 351.56-0.13 353.65-1 355.11-2.54L355.11-2.54 354.6-3.83Q353.4-3.2 352.5-2.91 351.6-2.61 350.91-2.55 350.23-2.49 349.06-2.49L349.06-2.49Q346.91-2.49 345.41-3.72 343.91-4.96 343.13-6.88 342.35-8.81 342.25-10.86L342.25-10.86 354.06-11.01Q354.21-11.65 354.33-12.63 354.45-13.62 354.45-14.18L354.45-14.18Q354.45-16.67 353.59-18.42 352.72-20.17 351.23-21.06 349.74-21.95 347.94-21.95L347.94-21.95Q345.49-21.95 343.18-20.56 340.86-19.17 339.38-16.55 337.9-13.94 337.9-10.45L337.9-10.45Q337.9-6.91 339.2-4.37 340.49-1.83 342.6-0.55 344.71 0.73 347.08 0.73L347.08 0.73ZM346.74-19.56Q350.11-19.56 350.11-15.01L350.11-15.01Q350.11-14.65 350.07-14.12 350.04-13.6 349.96-13.33L349.96-13.33 342.3-12.77Q342.42-15.01 343.09-16.54 343.76-18.07 344.74-18.81 345.71-19.56 346.74-19.56L346.74-19.56Z"
                                                                        opacity="1" transform="matrix(1,0,0,1,0,0)"
                                                                        fill="#fa4238" class="undefined-text-0"
                                                                        data-fill-palette-color="primary" id="text-0">
                                                                    </path>
                                                                </svg></g>
                                                        </svg></g>
                                                </svg></g>
                                        </svg></g>
                                    <g></g>
                                </svg></g>
                        </svg></g>
                </svg></g>
        </svg></g>
    <defs></defs>
</svg>